<mxfile host="app.diagrams.net" agent="Mozilla/5.0 (Windows NT 10.0; Win64; x64; rv:130.0) Gecko/20100101 Firefox/130.0" version="24.7.16">
  <diagram name="Page-1" id="i5LI792Ynd5tJVKV4r7k">
    <mxGraphModel dx="988" dy="542" grid="1" gridSize="10" guides="1" tooltips="1" connect="1" arrows="1" fold="1" page="1" pageScale="1" pageWidth="827" pageHeight="1169" math="1" shadow="0">
      <root>
        <mxCell id="0" />
        <mxCell id="1" parent="0" />
        <mxCell id="qWCm21guYHUEitxscZ2n-6" value="" style="fontColor=#0066CC;verticalAlign=top;verticalLabelPosition=bottom;labelPosition=center;align=center;html=1;outlineConnect=0;fillColor=#CCCCCC;strokeColor=#6881B3;gradientColor=none;gradientDirection=north;strokeWidth=2;shape=mxgraph.networks.satellite;rotation=-95;" vertex="1" parent="1">
          <mxGeometry x="132.27" y="332.08" width="50" height="50" as="geometry" />
        </mxCell>
        <mxCell id="qWCm21guYHUEitxscZ2n-11" value="" style="shadow=0;dashed=0;html=1;strokeColor=none;fillColor=#4495D1;labelPosition=center;verticalLabelPosition=bottom;verticalAlign=top;align=center;outlineConnect=0;shape=mxgraph.veeam.globe;" vertex="1" parent="1">
          <mxGeometry x="80" y="440" width="570" height="190" as="geometry" />
        </mxCell>
        <mxCell id="qWCm21guYHUEitxscZ2n-13" value="" style="rounded=0;whiteSpace=wrap;html=1;strokeColor=none;" vertex="1" parent="1">
          <mxGeometry x="80" y="496" width="590" height="140" as="geometry" />
        </mxCell>
        <mxCell id="qWCm21guYHUEitxscZ2n-17" value="\(\mathrm{Nadir}\)" style="text;html=1;align=center;verticalAlign=middle;whiteSpace=wrap;rounded=0;" vertex="1" parent="1">
          <mxGeometry x="330" y="290" width="60" height="30" as="geometry" />
        </mxCell>
        <mxCell id="qWCm21guYHUEitxscZ2n-18" value="" style="endArrow=classic;html=1;rounded=0;dashed=1;dashPattern=1 1;" edge="1" parent="1">
          <mxGeometry width="50" height="50" relative="1" as="geometry">
            <mxPoint x="360" y="320" as="sourcePoint" />
            <mxPoint x="360" y="476" as="targetPoint" />
          </mxGeometry>
        </mxCell>
        <mxCell id="qWCm21guYHUEitxscZ2n-19" value="" style="endArrow=classic;html=1;rounded=0;dashed=1;dashPattern=1 1;exitX=0.07;exitY=0.93;exitDx=0;exitDy=0;exitPerimeter=0;" edge="1" parent="1" source="qWCm21guYHUEitxscZ2n-6">
          <mxGeometry width="50" height="50" relative="1" as="geometry">
            <mxPoint x="370" y="290" as="sourcePoint" />
            <mxPoint x="358" y="476" as="targetPoint" />
          </mxGeometry>
        </mxCell>
        <mxCell id="qWCm21guYHUEitxscZ2n-20" value="" style="endArrow=classic;html=1;rounded=0;strokeColor=default;curved=1;" edge="1" parent="1">
          <mxGeometry width="50" height="50" relative="1" as="geometry">
            <mxPoint x="360" y="380" as="sourcePoint" />
            <mxPoint x="290" y="420" as="targetPoint" />
            <Array as="points">
              <mxPoint x="310" y="370" />
            </Array>
          </mxGeometry>
        </mxCell>
        <mxCell id="qWCm21guYHUEitxscZ2n-21" value="&lt;div&gt;\(\mathrm{Incidence}\)&lt;/div&gt;&lt;div&gt;\(\mathrm{angle}\)&lt;/div&gt;" style="text;html=1;align=center;verticalAlign=middle;whiteSpace=wrap;rounded=0;" vertex="1" parent="1">
          <mxGeometry x="280" y="350" width="60" height="30" as="geometry" />
        </mxCell>
      </root>
    </mxGraphModel>
  </diagram>
</mxfile>
